Coordinates
version=1
nRows=11
nColumns=63
inDegrees=yes

Units are S.I. units (second, meters, Newtons, ...)
If the header above contains a line with 'inDegrees', this indicates whether rotational values are in degrees (yes) or radians (no).

endheader
time	pelvis_tilt	pelvis_list	pelvis_rotation	pelvis_tx	pelvis_ty	pelvis_tz	hip_flexion_r	hip_adduction_r	hip_rotation_r	knee_angle_r	knee_angle_r_beta	ankle_angle_r	subtalar_angle_r	mtp_angle_r	hip_flexion_l	hip_adduction_l	hip_rotation_l	knee_angle_l	knee_angle_l_beta	ankle_angle_l	subtalar_angle_l	mtp_angle_l	L5_S1_Flex_Ext	L5_S1_Lat_Bending	L5_S1_axial_rotation	L4_L5_Flex_Ext	L4_L5_Lat_Bending	L4_L5_axial_rotation	L3_L4_Flex_Ext	L3_L4_Lat_Bending	L3_L4_axial_rotation	L2_L3_Flex_Ext	L2_L3_Lat_Bending	L2_L3_axial_rotation	L1_L2_Flex_Ext	L1_L2_Lat_Bending	L1_L2_axial_rotation	L1_T12_Flex_Ext	L1_T12_Lat_Bending	L1_T12_axial_rotation	Abs_r3	Abs_r2	Abs_r1	Abs_t1	Abs_t2	neck_flexion	neck_bending	neck_rotation	arm_flex_r	arm_add_r	arm_rot_r	elbow_flex_r	pro_sup_r	wrist_flex_r	wrist_dev_r	arm_flex_l	arm_add_l	arm_rot_l	elbow_flex_l	pro_sup_l	wrist_flex_l	wrist_dev_l
1.086957	3.367032	-2.724877	87.448619	0.209830	0.956920	0.560433	-4.193814	-0.488053	9.986080	0.617235	0.010773	21.660248	-2.957887	0.000000	-3.900717	0.667112	6.050601	1.143267	0.019954	19.935837	-8.095957	0.000000	-0.131570	-0.088101	-1.341315	-0.244339	-0.117175	-1.425147	-0.216157	-0.214209	-1.425147	-0.150372	-0.214209	-1.173651	-0.122176	-0.179656	-1.089819	-0.075179	-0.136469	-1.005986	-0.939793	-0.996618	-7.459993	0.000000	0.000000	7.376905	8.603590	9.231750	9.236803	-11.188134	63.512138	24.076995	77.055451	-2.803538	3.721956	-4.821601	-15.094642	39.882528	26.839334	85.333015	-4.619464	7.054544
1.108696	3.385649	-2.859120	87.716892	0.209437	0.956665	0.561646	-3.975307	-0.456401	9.497502	0.640217	0.011174	21.695533	-2.654807	0.000000	-3.596117	0.632647	5.947511	1.267905	0.022129	20.106927	-7.638538	0.000000	-0.128468	-0.092287	-1.337634	-0.238578	-0.122742	-1.421236	-0.211060	-0.224387	-1.421236	-0.146826	-0.224387	-1.170430	-0.119295	-0.188192	-1.086828	-0.073407	-0.142953	-1.003226	-0.917633	-1.043969	-7.439521	0.000000	0.000000	7.481250	8.510024	8.594444	8.999770	-11.293785	62.345242	24.332135	79.222603	-3.359985	4.061811	-5.164318	-15.186253	38.063168	27.594828	85.928111	-3.851179	7.692260
1.130435	3.424690	-3.012148	88.057277	0.208925	0.956427	0.562877	-3.744127	-0.402014	8.696173	0.670938	0.011710	21.770961	-1.986198	0.000000	-3.252244	0.573013	5.750118	1.419749	0.024779	20.315588	-6.950992	0.000000	-0.124882	-0.094035	-1.339389	-0.231918	-0.125066	-1.423101	-0.205168	-0.228636	-1.423101	-0.142727	-0.228636	-1.171965	-0.115965	-0.191755	-1.088254	-0.071357	-0.145660	-1.004542	-0.892019	-1.063739	-7.449280	0.000000	0.000000	7.537391	8.445378	7.939648	8.770644	-11.408075	61.353375	24.600268	80.902111	-3.754926	4.341166	-5.379695	-15.285751	36.704877	28.293023	86.190489	-3.207013	8.076945
1.152174	3.480618	-3.177692	88.436891	0.208366	0.956203	0.564061	-3.514508	-0.324373	7.976759	0.696772	0.012161	21.785292	-1.488700	0.000000	-2.900737	0.498314	5.754557	1.560015	0.027227	20.439248	-6.505367	0.000000	-0.120738	-0.093903	-1.344010	-0.224222	-0.124890	-1.428011	-0.198360	-0.228315	-1.428011	-0.137991	-0.228315	-1.176009	-0.112117	-0.191486	-1.092008	-0.068989	-0.145455	-1.008008	-0.862416	-1.062245	-7.474981	0.000000	0.000000	7.524256	8.444611	7.326513	8.515167	-11.517682	60.330777	24.909711	82.108962	-3.949481	4.594376	-5.467396	-15.394253	35.881596	28.906789	86.267686	-2.677801	8.283751
1.173913	3.547167	-3.346110	88.858177	0.207750	0.956019	0.565187	-3.291568	-0.234884	7.082325	0.727310	0.012694	21.830730	-0.792549	0.000000	-2.531960	0.412180	5.674659	1.729612	0.030187	20.594079	-5.895768	0.000000	-0.116441	-0.092874	-1.354982	-0.216242	-0.123522	-1.439668	-0.191300	-0.225814	-1.439668	-0.133080	-0.225814	-1.185609	-0.108127	-0.189389	-1.100923	-0.066534	-0.143862	-1.016236	-0.831724	-1.050610	-7.536003	0.000000	0.000000	7.428395	8.502750	6.766375	8.304146	-11.622549	59.563940	25.208776	82.668027	-4.050722	4.736000	-5.399047	-15.514373	35.771133	29.373524	86.207736	-2.297491	8.321022
1.195652	3.628313	-3.509878	89.292414	0.207122	0.955859	0.566193	-3.085811	-0.126872	6.223635	0.753998	0.013160	21.860950	-0.182411	0.000000	-2.179069	0.312556	5.720859	1.888803	0.032966	20.706645	-5.440845	0.000000	-0.111836	-0.090812	-1.372783	-0.207691	-0.120780	-1.458582	-0.183736	-0.220801	-1.458582	-0.127818	-0.220801	-1.201185	-0.103851	-0.185185	-1.115386	-0.063903	-0.140668	-1.029587	-0.798836	-1.027288	-7.635008	0.000000	0.000000	7.257920	8.631532	6.293405	8.145423	-11.721499	59.055122	25.504656	82.609660	-4.018322	4.793562	-5.254190	-15.631555	36.242202	29.677572	85.778369	-2.097911	8.062293
1.217391	3.703524	-3.660258	89.719831	0.206542	0.955703	0.567057	-2.907545	-0.020474	5.735169	0.767711	0.013399	21.815668	-0.098254	0.000000	-1.855055	0.220548	5.835807	2.033777	0.035496	20.798245	-5.097187	0.000000	-0.107482	-0.090438	-1.390916	-0.199605	-0.120283	-1.477848	-0.176582	-0.219892	-1.477848	-0.122841	-0.219892	-1.217051	-0.099808	-0.184422	-1.130119	-0.061415	-0.140089	-1.043187	-0.767734	-1.023055	-7.735857	0.000000	0.000000	7.066035	8.766786	5.872648	7.926059	-11.802432	58.160121	25.843964	82.875594	-3.934869	4.908431	-5.150300	-15.762196	36.473068	29.987269	85.995533	-1.971228	7.947876
1.239130	3.787166	-3.790007	90.140045	0.205949	0.955580	0.567767	-2.761799	0.094174	5.416816	0.772806	0.013488	21.741714	-0.262456	0.000000	-1.571159	0.124016	6.032256	2.161556	0.037726	20.854184	-4.879220	0.000000	-0.103001	-0.089081	-1.409292	-0.191284	-0.118478	-1.497373	-0.169221	-0.216592	-1.497373	-0.117720	-0.216592	-1.233130	-0.095647	-0.181655	-1.145050	-0.058855	-0.137987	-1.056969	-0.735727	-1.007705	-7.838059	0.000000	0.000000	6.847063	8.911042	5.546186	7.732443	-11.891646	57.404713	26.159945	82.800264	-3.740356	4.985812	-4.988920	-15.894120	37.091271	30.155073	86.195685	-2.006779	7.693751
1.260870	3.873334	-3.904406	90.541881	0.205411	0.955464	0.568304	-2.644330	0.213851	5.275485	0.768396	0.013411	21.642808	-0.665790	0.000000	-1.328344	0.025433	6.334708	2.262996	0.039497	20.873418	-4.827938	0.000000	-0.097049	-0.087890	-1.434259	-0.180229	-0.116894	-1.523901	-0.159441	-0.213696	-1.523901	-0.110917	-0.213696	-1.254977	-0.090120	-0.179225	-1.165336	-0.055454	-0.136142	-1.075694	-0.693210	-0.994230	-7.976920	0.000000	0.000000	6.643049	9.010536	5.299517	7.526496	-11.974141	56.537287	26.493565	83.150724	-3.581648	5.093098	-4.926046	-16.037555	37.490951	30.350582	86.487628	-2.189682	7.456327
1.282609	3.957260	-3.999470	90.905862	0.204928	0.955369	0.568657	-2.560737	0.331418	5.348344	0.753506	0.013151	21.513015	-1.336482	0.000000	-1.136505	-0.066808	6.761800	2.329240	0.040653	20.838176	-4.997298	0.000000	-0.089035	-0.087022	-1.459926	-0.165347	-0.115740	-1.551171	-0.146276	-0.211586	-1.551171	-0.101758	-0.211586	-1.277435	-0.082678	-0.177456	-1.186190	-0.050875	-0.134798	-1.094944	-0.635968	-0.984413	-8.119670	0.000000	0.000000	6.460472	9.049386	5.114601	7.354249	-12.066227	55.880611	26.805719	83.495009	-3.430715	5.201652	-4.912403	-16.200662	37.912194	30.551036	86.679301	-2.471216	7.230292
1.304348	4.031151	-4.072097	91.227359	0.204518	0.955313	0.568867	-2.507518	0.437438	5.406220	0.739965	0.012915	21.405342	-1.944162	0.000000	-0.981553	-0.150611	7.056002	2.391186	0.041734	20.842006	-5.015766	0.000000	-0.079742	-0.087393	-1.487137	-0.148089	-0.116233	-1.580083	-0.131008	-0.212488	-1.580083	-0.091137	-0.212488	-1.301245	-0.074049	-0.178213	-1.208299	-0.045565	-0.135372	-1.115353	-0.569591	-0.988612	-8.271010	0.000000	0.000000	6.293434	9.051867	5.039877	7.227395	-12.150393	55.446832	27.063244	84.004484	-3.326496	5.272250	-4.982931	-16.347640	38.057060	30.780980	86.924845	-2.703014	7.126333
